<svg xmlns="http://www.w3.org/2000/svg" fill="#fff" viewBox="0 0 100 100" width="100px" height="100px"><path d="M 50 14 C 30.149 14 14 30.149 14 50 C 14 69.851 30.149 86 50 86 C 69.851 86 86 69.851 86 50 C 86 30.149 69.851 14 50 14 z M 50 16 C 68.748 16 84 31.252 84 50 C 84 68.748 68.748 84 50 84 C 31.252 84 16 68.748 16 50 C 16 31.252 31.252 16 50 16 z M 50 19 C 32.906 19 19 32.907 19 50 C 19 67.093 32.906 81 50 81 C 67.094 81 81 67.093 81 50 C 81 41.28 77.295938 32.914875 70.835938 27.046875 C 70.632938 26.861875 70.317859 26.876078 70.130859 27.080078 C 69.944859 27.285078 69.959063 27.601109 70.164062 27.787109 C 76.415062 33.465109 80 41.561 80 50 C 80 66.542 66.542 80 50 80 C 33.458 80 20 66.542 20 50 C 20 33.458 33.458 20 50 20 C 53.551 20 57.025125 20.613219 60.328125 21.824219 C 60.587125 21.920219 60.875703 21.787344 60.970703 21.527344 C 61.065703 21.267344 60.931875 20.981719 60.671875 20.886719 C 57.258875 19.635719 53.668 19 50 19 z M 63.529297 22.144531 C 63.335234 22.133141 63.143031 22.235125 63.050781 22.421875 C 62.928781 22.669875 63.030344 22.968797 63.277344 23.091797 C 63.945344 23.421797 64.606141 23.77925 65.244141 24.15625 C 65.324141 24.20425 65.413 24.226562 65.5 24.226562 C 65.671 24.226562 65.836687 24.139422 65.929688 23.982422 C 66.069688 23.744422 65.990906 23.437875 65.753906 23.296875 C 65.094906 22.905875 64.409703 22.536313 63.720703 22.195312 C 63.659453 22.165312 63.593984 22.148328 63.529297 22.144531 z M 67.414062 24.525391 C 67.288062 24.547266 67.170797 24.616469 67.091797 24.730469 C 66.932797 24.956469 66.986891 25.268734 67.212891 25.427734 C 67.545891 25.661734 67.873312 25.899484 68.195312 26.146484 C 68.286313 26.215484 68.394 26.25 68.5 26.25 C 68.65 26.25 68.799438 26.182688 68.898438 26.054688 C 69.065438 25.834688 69.024687 25.520516 68.804688 25.353516 C 68.470687 25.098516 68.132109 24.848422 67.787109 24.607422 C 67.674109 24.528922 67.540063 24.503516 67.414062 24.525391 z M 31.050781 38 C 30.384157 38 29.870289 38.175186 29.554688 38.53125 C 29.239085 38.887314 29.185547 39.327568 29.185547 39.6875 C 29.185547 40.056978 29.269317 40.636893 29.46875 41.482422 C 29.66818 42.327951 29.985454 43.412466 30.460938 44.677734 C 31.411904 47.208272 32.996892 50.461014 35.537109 53.9375 C 39.248466 59.015394 44.15531 62 48.628906 62 C 49.957834 62 50.762609 61.858839 51.3125 61.445312 C 51.862391 61.031787 51.964844 60.376318 51.964844 59.822266 L 51.964844 55.267578 L 51.964844 55.265625 C 51.966144 54.691522 52.053224 54.360264 52.126953 54.248047 C 52.200813 54.13562 52.245836 54.101564 52.566406 54.101562 C 52.682322 54.101562 53.049619 54.191072 53.662109 54.646484 C 54.274599 55.101899 55.127171 55.903089 56.261719 57.226562 C 57.571844 58.754466 58.339456 59.884366 59.011719 60.683594 C 59.683981 61.482822 60.371352 62.001953 61.296875 62.001953 L 65.310547 62.001953 C 65.846468 62.001953 66.3117 61.888771 66.648438 61.580078 C 66.985174 61.271385 67.11431 60.8222 67.126953 60.365234 L 67.126953 60.363281 C 67.133453 60.112316 67.097713 59.850873 67.025391 59.574219 L 67.021484 59.558594 L 67.015625 59.541016 C 66.668047 58.507643 65.472635 56.385047 63.734375 54.283203 L 63.734375 54.28125 C 62.774956 53.122418 61.671008 51.958254 61.304688 51.433594 L 61.302734 51.431641 L 61.300781 51.427734 C 61.043714 51.069453 61.005601 50.910962 61.011719 50.792969 C 61.018019 50.665312 61.108929 50.460443 61.326172 50.089844 L 61.330078 50.082031 C 61.328578 50.084431 61.330567 50.081949 61.335938 50.072266 C 61.341338 50.063866 61.349621 50.05177 61.363281 50.03125 C 61.396921 49.98075 61.450291 49.902451 61.519531 49.800781 C 61.658012 49.597442 61.858675 49.301291 62.103516 48.939453 C 62.593196 48.215778 63.256947 47.224401 63.9375 46.154297 C 64.618053 45.084193 65.315525 43.935754 65.880859 42.890625 C 66.441641 41.853913 66.869435 40.946911 67.023438 40.21875 C 67.112448 39.910225 67.108729 39.632299 67.099609 39.4375 C 67.086049 39.110189 67.023719 38.729354 66.738281 38.427734 C 66.452936 38.126328 66.018353 38 65.494141 38 L 61.480469 38 C 60.872713 38 60.369626 38.198137 60.007812 38.498047 C 59.646 38.797956 59.423932 39.177564 59.269531 39.525391 C 59.256671 39.551721 56.772203 44.634031 53.966797 47.941406 C 53.522839 48.406541 53.193079 48.686569 52.958984 48.830078 C 52.745682 48.960841 52.621372 48.988846 52.472656 48.994141 C 52.462395 48.990808 52.456718 48.990908 52.441406 48.980469 C 52.387986 48.944039 52.30921 48.873961 52.236328 48.78125 C 52.090564 48.595829 51.966797 48.328822 51.966797 48.005859 L 51.966797 40.054688 C 51.966797 39.481176 51.912857 38.99923 51.640625 38.597656 C 51.368393 38.196081 50.867738 38 50.34375 38 L 43.40625 38 C 42.963107 38 42.566422 38.193464 42.318359 38.480469 C 42.070297 38.767474 41.957031 39.126327 41.957031 39.482422 C 41.957031 40.138269 42.238595 40.551377 42.462891 41.060547 C 42.687186 41.569717 42.924267 42.262047 43 43.644531 L 43 49.171875 C 43 49.68895 42.991634 49.831703 42.990234 49.953125 C 42.879391 49.929845 42.583219 49.806496 42.185547 49.384766 C 41.754419 48.927556 41.248947 48.224064 40.728516 47.328125 C 39.687653 45.536247 38.576889 42.974755 37.6875 39.994141 L 37.685547 39.988281 L 37.683594 39.982422 C 37.479658 39.359821 37.268066 38.873156 36.892578 38.513672 C 36.517091 38.154188 35.998671 38 35.417969 38 L 31.050781 38 z M 31.050781 39 L 35.417969 39 C 35.850267 39 36.031159 39.07161 36.201172 39.234375 C 36.371184 39.397141 36.549438 39.728651 36.734375 40.292969 C 37.643283 43.335468 38.773745 45.951043 39.865234 47.830078 C 40.411803 48.771014 40.946362 49.528632 41.458984 50.072266 C 41.971606 50.6159 42.452814 51 43.058594 51 C 43.181635 51 43.29072 51.019201 43.482422 50.962891 C 43.674123 50.906581 43.896607 50.66335 43.949219 50.480469 C 44.054442 50.114708 44 49.838344 44 49.171875 L 44 43.603516 L 44 43.589844 C 43.91873 42.106328 43.634908 41.243783 43.376953 40.658203 C 43.118998 40.072623 42.957031 39.849575 42.957031 39.482422 C 42.957031 39.346517 43.005731 39.216261 43.076172 39.134766 C 43.146609 39.053269 43.225393 39 43.40625 39 L 50.34375 39 C 50.676762 39 50.73798 39.04828 50.8125 39.158203 C 50.88702 39.268129 50.966797 39.564197 50.966797 40.054688 L 50.966797 48.005859 C 50.966797 48.582896 51.184233 49.061359 51.449219 49.398438 C 51.581712 49.566977 51.725527 49.70338 51.876953 49.806641 C 52.028379 49.909902 52.173114 50 52.423828 50 C 52.756538 50 53.121148 49.90311 53.482422 49.681641 C 53.843696 49.460166 54.220544 49.126495 54.703125 48.619141 L 54.712891 48.609375 L 54.720703 48.599609 C 57.674777 45.121277 60.175781 39.947266 60.175781 39.947266 L 60.179688 39.939453 L 60.183594 39.931641 C 60.302193 39.664467 60.451095 39.427919 60.644531 39.267578 C 60.837958 39.107281 61.074225 39 61.480469 39 L 65.494141 39 C 65.868928 39 65.977114 39.0766 66.013672 39.115234 C 66.050232 39.153864 66.090169 39.250827 66.099609 39.478516 L 66.099609 39.480469 C 66.108209 39.663763 66.108313 39.805772 66.064453 39.949219 L 66.058594 39.972656 L 66.052734 39.994141 C 65.950413 40.490581 65.548993 41.404707 65.001953 42.416016 C 64.454913 43.427324 63.766697 44.560995 63.09375 45.619141 C 62.420803 46.677286 61.762085 47.659644 61.275391 48.378906 C 61.032043 48.738537 60.832863 49.033441 60.693359 49.238281 C 60.623609 49.340702 60.569562 49.419044 60.53125 49.476562 C 60.51209 49.505322 60.496332 49.528591 60.482422 49.550781 C 60.477022 49.559381 60.470371 49.570804 60.462891 49.583984 C 60.460691 49.587884 60.459831 49.58855 60.457031 49.59375 C 60.450931 49.60496 60.428074 49.659256 60.427734 49.660156 C 60.427698 49.660253 60.422222 49.682039 60.419922 49.693359 C 60.221639 50.033036 60.033778 50.344358 60.013672 50.742188 C 59.991822 51.163623 60.172145 51.568741 60.488281 52.009766 C 60.488281 52.009766 60.488281 52.011719 60.488281 52.011719 C 60.979154 52.713205 62.038004 53.8028 62.962891 54.919922 C 64.622772 56.926993 65.808368 59.107383 66.060547 59.847656 C 66.109707 60.042599 66.132266 60.208003 66.128906 60.337891 C 66.120506 60.639925 66.056166 60.76524 65.972656 60.841797 C 65.889146 60.918357 65.706626 61.001953 65.310547 61.001953 L 61.296875 61.001953 C 60.701398 61.001953 60.389081 60.766336 59.777344 60.039062 C 59.165606 59.311791 58.364359 58.142268 57.021484 56.576172 C 55.856032 55.216646 54.964276 54.367585 54.259766 53.84375 C 53.555256 53.319915 53.034491 53.101563 52.566406 53.101562 C 52.067977 53.101562 51.562402 53.286146 51.291016 53.699219 C 51.01963 54.112291 50.965905 54.61372 50.964844 55.265625 L 50.964844 59.822266 C 50.964844 60.290213 50.936294 60.475058 50.710938 60.644531 C 50.485692 60.81388 49.872978 61 48.628906 61 C 44.606503 61 39.916393 58.235762 36.34375 53.347656 C 33.861967 49.951142 32.319969 46.778385 31.398438 44.326172 C 30.937671 43.100065 30.632242 42.052768 30.443359 41.251953 C 30.254476 40.451138 30.185547 39.871022 30.185547 39.6875 C 30.185547 39.433432 30.228337 39.279249 30.302734 39.195312 C 30.377132 39.111377 30.547405 39 31.050781 39 z"/></svg>